<?xml version="1.0" encoding="utf-8"?>
<!-- Generator: Adobe Illustrator 23.0.3, SVG Export Plug-In . SVG Version: 6.00 Build 0)  -->
<svg version="1.1" xmlns="http://www.w3.org/2000/svg" xmlns:xlink="http://www.w3.org/1999/xlink" x="0px" y="0px"
	 viewBox="0 0 425.2 425.2" style="enable-background:new 0 0 425.2 425.2;" xml:space="preserve">
<style type="text/css">
	.st0{fill:none;}
	.st1{fill:#FFFFFF;}
</style>
<g id="Diecut_切線__x28_not_for_print_x29_">
</g>
<g id="Print">
	<g>
		<rect class="st0" width="425.2" height="425.2"/>
		<path class="st1" d="M298.9,111.7H126.3c-8,0-14.4,6.4-14.4,14.4v172.7c0,8,6.4,14.4,14.4,14.4h172.7c8,0,14.4-6.4,14.4-14.4
			V126.1C313.3,118.1,306.9,111.7,298.9,111.7z M238.4,263.4c-17.6,17.6-45.7,18.4-64.2,2.3c-0.1-0.1-0.2-0.2-0.3-0.3
			c-1.1-1.1-1.1-2.9-0.1-4.1l62.5-62.5c1.2-1.1,3-1.1,4.1,0.1C256.8,217.4,256.1,245.7,238.4,263.4z M251.4,163.5L188.9,226v0
			c-1.2,1.1-3,1.1-4.1-0.1h0c-16.3-18.5-15.7-46.8,2-64.5c17.6-17.6,45.7-18.4,64.2-2.3c0.1,0.1,0.2,0.2,0.3,0.3
			C252.4,160.5,252.5,162.4,251.4,163.5z"/>
	</g>
</g>
</svg>
