<?xml version="1.0" encoding="utf-8"?>
<!-- Generator: Adobe Illustrator 23.0.3, SVG Export Plug-In . SVG Version: 6.00 Build 0)  -->
<svg version="1.1" xmlns="http://www.w3.org/2000/svg" xmlns:xlink="http://www.w3.org/1999/xlink" x="0px" y="0px"
	 viewBox="0 0 22.7 22.7" style="enable-background:new 0 0 22.7 22.7;" xml:space="preserve">
<style type="text/css">
	.st0{fill:none;}
	.st1{fill:#FFFFFF;}
</style>
<g id="Diecut_切線__x28_not_for_print_x29_">
</g>
<g id="Print">
	<g>
		<rect class="st0" width="22.7" height="22.7"/>
		<path class="st1" d="M15.9,6H6.7C6.3,6,6,6.3,6,6.7v9.2c0,0.4,0.3,0.8,0.8,0.8h9.2c0.4,0,0.8-0.3,0.8-0.8V6.7
			C16.7,6.3,16.4,6,15.9,6z M12.7,14c-0.9,0.9-2.4,1-3.4,0.1c0,0,0,0,0,0c-0.1-0.1-0.1-0.2,0-0.2l3.3-3.3c0.1-0.1,0.2-0.1,0.2,0
			C13.7,11.6,13.7,13.1,12.7,14z M13.4,8.7l-3.3,3.3v0c-0.1,0.1-0.2,0.1-0.2,0h0C9,11.1,9,9.6,10,8.6c0.9-0.9,2.4-1,3.4-0.1
			c0,0,0,0,0,0C13.5,8.6,13.5,8.7,13.4,8.7z"/>
	</g>
</g>
</svg>
