<?xml version="1.0" encoding="utf-8"?>
<!-- Generator: Adobe Illustrator 23.0.3, SVG Export Plug-In . SVG Version: 6.00 Build 0)  -->
<svg version="1.1" xmlns="http://www.w3.org/2000/svg" xmlns:xlink="http://www.w3.org/1999/xlink" x="0px" y="0px"
	 viewBox="0 0 400 158.9" style="enable-background:new 0 0 400 158.9;" xml:space="preserve">
<style type="text/css">
	.st0{fill:none;}
	.st1{fill:#212933;}
</style>
<g id="Diecut_切線__x28_not_for_print_x29_">
</g>
<g id="Print">
	<rect x="51" y="-0.9" class="st0" width="400" height="158.9"/>
	<g>
		<g>
			<g>
				<g>
					<path class="st1" d="M258.3,57h-0.2c-3.8,0-7.2,1.6-9.6,4.1c-2.4-2.5-5.8-4-9.6-4h-0.2c-7.4,0-13.5,6-13.5,13.4v26.1h0
						c0.1,2,1.8,3.6,3.8,3.6c2.1,0,3.7-1.6,3.8-3.6h0V70.4c0-3.2,2.6-5.8,5.8-5.8h0.2c3.1,0,5.7,2.4,5.8,5.5c0,0.1,0,0.1,0,0.2v26.1
						h0c0,0.8,0.3,1.5,0.7,2c0.7,1,1.8,1.6,3.1,1.6c2.1,0,3.7-1.6,3.8-3.6h0V70.4c0-0.1,0-0.2,0-0.3c0.1-3.1,2.7-5.5,5.8-5.5h0.2
						c3.2,0,5.8,2.6,5.8,5.8v25.9c0,0,0,0.1,0,0.1c0,0,0,0.1,0,0.1v0.1h0c0.1,2,1.7,3.6,3.8,3.6c2.1,0,3.7-1.6,3.8-3.6h0V70.4
						C271.8,63,265.8,57,258.3,57z"/>
					<path class="st1" d="M213,57c-2.1,0-3.8,1.6-3.8,3.6h0v26.1c0,3.2-2.6,5.8-5.9,5.8h-0.2c-3.2,0-5.9-2.6-5.9-5.8V60.9
						c0,0,0-0.1,0-0.1l0-0.1v-0.1h0c-0.1-2-1.8-3.6-3.8-3.6c-2.1,0-3.8,1.6-3.9,3.6h0v26.1c0,7.4,6.1,13.4,13.6,13.4h0.2
						c7.5,0,13.6-6,13.6-13.4V60.6h0C216.8,58.6,215.1,57,213,57z"/>
					<path class="st1" d="M303.8,57c-2.1,0-3.8,1.6-3.8,3.6h0v26.1c0,3.2-2.6,5.8-5.9,5.8h-0.2c-3.2,0-5.9-2.6-5.9-5.8V60.9
						c0,0,0-0.1,0-0.1l0-0.1v-0.1h0c-0.1-2-1.8-3.6-3.9-3.6c-2.1,0-3.8,1.6-3.8,3.6h0v26.1c0,7.4,6.1,13.4,13.6,13.4h0.2
						c7.5,0,13.6-6,13.6-13.4V60.6h0C307.6,58.6,305.9,57,303.8,57z"/>
					<path class="st1" d="M329.4,57h-0.2c-7.6,0-13.8,6.1-13.8,13.7v15.8c0,0.5,0,0.9,0,1.4v30.1c0,2.1,1.7,3.8,3.8,3.8
						c2.1,0,3.8-1.7,3.8-3.8V98.2c1.5,1.3,3.9,1.9,6.1,1.9h0.2c7.6,0,13.4-6.5,13.4-14V70.3C342.8,62.7,337,57,329.4,57z
						 M335.3,86.5c0,4.1-2.7,5.9-6,5.9h-0.2c-3.3,0-6-1.8-6-5.9V70.6c0-3.3,2.7-5.9,6-5.9h0.2c3.3,0,6,2.6,6,5.9V86.5z"/>
					<path class="st1" d="M170.6,74c-4.3-1.7-7-2.9-7-5.4c0-2,1.6-4.1,5.3-4.1c2.3,0,4.2,1,5.6,2.9c0.9,1.2,1.9,1.8,3.1,1.8
						c2.2,0,4-1.8,4-3.9c0-0.8-0.2-1.5-0.6-2.1c-2.4-3.7-7.3-6.2-12-6.2c-6.5,0-13,4-13,11.6c0,7.9,6.5,10.4,11.7,12.4
						c4.2,1.6,7.8,3,7.8,6.5c0,2.5-2.4,5.1-6.9,5.1c-1.4,0-4-0.3-5.7-2.4c-0.9-1.1-2-1.6-3.1-1.6c-2.1,0-4,1.8-4,3.8
						c0,0.8,0.3,1.6,0.8,2.3c2.4,3.6,7.9,5.5,12,5.5c7.1,0,14.7-4.4,14.7-12.7C183.1,78.9,176.2,76.2,170.6,74z"/>
					<path class="st1" d="M120.3,29.6H35.3c-3.9,0-7.1,3.1-7.1,7V121c0,3.9,3.2,7,7.1,7h84.9c3.9,0,7.1-3.1,7.1-7V36.6
						C127.3,32.7,124.2,29.6,120.3,29.6z M90.5,103.7c-8.7,8.6-22.5,9-31.6,1.1c-0.1,0-0.1-0.1-0.1-0.1c-0.6-0.6-0.6-1.4,0-2
						l30.7-30.5c0.6-0.5,1.5-0.5,2,0C99.5,81.2,99.2,95,90.5,103.7z M96.9,54.9L66.1,85.4v0c-0.6,0.5-1.5,0.5-2,0h0
						c-8-9-7.7-22.9,1-31.5c8.7-8.6,22.5-9,31.6-1.1c0,0,0.1,0.1,0.1,0.1C97.4,53.4,97.4,54.3,96.9,54.9z"/>
					<g>
						<g>
							<path class="st1" d="M360.7,57c-4.2,0-7.7,3.4-7.7,7.6c0,4.2,3.4,7.6,7.7,7.6c4.2,0,7.7-3.4,7.7-7.6
								C368.3,60.4,364.9,57,360.7,57z M360.7,70.4c-3.2,0-5.8-2.6-5.8-5.8c0-3.2,2.6-5.7,5.8-5.7c3.2,0,5.8,2.6,5.8,5.7
								C366.5,67.8,363.9,70.4,360.7,70.4z"/>
						</g>
						<path class="st1" d="M361.5,64.9c1-0.2,1.6-0.9,1.6-1.9c0-1.3-0.9-2.1-2.3-2.1h-1.9c-0.4,0-0.8,0.3-0.8,0.8v5.4
							c0,0.6,0.3,0.8,0.8,0.8s0.8-0.3,0.8-0.8v-2h0l1.9,2.4c0.2,0.2,0.3,0.4,0.7,0.4c0.6,0,0.8-0.5,0.8-0.7c0-0.3-0.1-0.4-0.3-0.7
							L361.5,64.9z M360.7,63.8h-1v-1.5h1c0.4,0,0.8,0.3,0.8,0.8C361.6,63.4,361.3,63.8,360.7,63.8z"/>
					</g>
				</g>
			</g>
		</g>
		<rect class="st0" width="400" height="158.9"/>
	</g>
</g>
</svg>
