<?xml version="1.0" encoding="utf-8"?>
<!-- Generator: Adobe Illustrator 23.0.3, SVG Export Plug-In . SVG Version: 6.00 Build 0)  -->
<svg version="1.1" xmlns="http://www.w3.org/2000/svg" xmlns:xlink="http://www.w3.org/1999/xlink" x="0px" y="0px"
	 viewBox="0 0 250 99.3" style="enable-background:new 0 0 250 99.3;" xml:space="preserve">
<style type="text/css">
	.st0{fill:#212933;}
	.st1{fill:none;}
</style>
<g id="Diecut_切線__x28_not_for_print_x29_">
</g>
<g id="Print">
	<g>
		<g>
			<g>
				<path class="st0" d="M161.5,35.6h-0.1c-2.4,0-4.5,1-6,2.5c-1.5-1.5-3.7-2.5-6-2.5h-0.1c-4.6,0-8.4,3.7-8.4,8.4v16.3h0
					c0.1,1.3,1.1,2.3,2.4,2.3c1.3,0,2.3-1,2.4-2.3h0V44c0-2,1.6-3.6,3.6-3.6h0.1c2,0,3.5,1.5,3.6,3.5c0,0,0,0.1,0,0.1v16.3h0
					c0,0.5,0.2,0.9,0.4,1.3c0.4,0.6,1.1,1,1.9,1c1.3,0,2.3-1,2.4-2.3h0V44c0-0.1,0-0.1,0-0.2c0.1-1.9,1.7-3.5,3.6-3.5h0.1
					c2,0,3.6,1.6,3.6,3.6v16.2c0,0,0,0,0,0c0,0,0,0,0,0.1v0.1h0c0.1,1.3,1.1,2.3,2.4,2.3c1.3,0,2.3-1,2.4-2.3h0V44
					C169.9,39.4,166.1,35.6,161.5,35.6z"/>
				<path class="st0" d="M133.1,35.6c-1.3,0-2.3,1-2.4,2.3h0v16.3c0,2-1.6,3.6-3.7,3.6h-0.1c-2,0-3.7-1.6-3.7-3.6V38c0,0,0,0,0,0
					l0-0.1v-0.1h0c-0.1-1.3-1.1-2.3-2.4-2.3c-1.3,0-2.3,1-2.4,2.3h0v16.3c0,4.6,3.8,8.4,8.5,8.4h0.1c4.7,0,8.5-3.8,8.5-8.4V37.9h0
					C135.5,36.6,134.4,35.6,133.1,35.6z"/>
				<path class="st0" d="M189.9,35.6c-1.3,0-2.3,1-2.4,2.3h0v16.3c0,2-1.6,3.6-3.7,3.6h-0.1c-2,0-3.7-1.6-3.7-3.6V38c0,0,0,0,0,0
					l0-0.1v-0.1h0c-0.1-1.3-1.1-2.3-2.4-2.3c-1.3,0-2.3,1-2.4,2.3h0v16.3c0,4.6,3.8,8.4,8.5,8.4h0.1c4.7,0,8.5-3.8,8.5-8.4V37.9h0
					C192.2,36.6,191.2,35.6,189.9,35.6z"/>
				<path class="st0" d="M205.8,35.6h-0.1c-4.8,0-8.6,3.8-8.6,8.5V54c0,0.3,0,0.6,0,0.9v18.8c0,1.3,1.1,2.4,2.4,2.4
					c1.3,0,2.4-1.1,2.4-2.4V61.4c0.9,0.8,2.4,1.2,3.8,1.2h0.1c4.8,0,8.4-4.1,8.4-8.8v-9.9C214.2,39.2,210.6,35.6,205.8,35.6z
					 M209.6,54c0,2.6-1.7,3.7-3.7,3.7h-0.1c-2.1,0-3.7-1.1-3.7-3.7v-9.9c0-2,1.7-3.7,3.7-3.7h0.1c2.1,0,3.7,1.6,3.7,3.7V54z"/>
				<path class="st0" d="M106.6,46.3c-2.7-1.1-4.4-1.8-4.4-3.4c0-1.3,1-2.5,3.3-2.5c1.4,0,2.6,0.6,3.5,1.8c0.6,0.7,1.2,1.1,1.9,1.1
					c1.4,0,2.5-1.1,2.5-2.4c0-0.5-0.1-1-0.4-1.3c-1.5-2.3-4.6-3.9-7.5-3.9c-4,0-8.1,2.5-8.1,7.3c0,4.9,4,6.5,7.3,7.7
					c2.6,1,4.9,1.9,4.9,4c0,1.6-1.5,3.2-4.3,3.2c-0.9,0-2.5-0.2-3.6-1.5c-0.6-0.7-1.3-1-1.9-1c-1.3,0-2.5,1.1-2.5,2.4
					c0,0.5,0.2,1,0.5,1.4c1.5,2.3,4.9,3.4,7.5,3.4c4.4,0,9.2-2.8,9.2-7.9C114.4,49.3,110.1,47.6,106.6,46.3z"/>
				<path class="st0" d="M75.2,18.5H22.1c-2.4,0-4.4,2-4.4,4.4v52.8c0,2.4,2,4.4,4.4,4.4h53.1c2.4,0,4.4-2,4.4-4.4V22.9
					C79.6,20.4,77.6,18.5,75.2,18.5z M56.5,64.8c-5.4,5.4-14,5.6-19.7,0.7c0,0-0.1-0.1-0.1-0.1c-0.3-0.3-0.4-0.9,0-1.3l19.2-19.1
					c0.4-0.3,0.9-0.3,1.3,0C62.2,50.8,62,59.4,56.5,64.8z M60.5,34.3L41.3,53.4v0c-0.4,0.3-0.9,0.3-1.3,0h0
					c-5-5.7-4.8-14.3,0.6-19.7c5.4-5.4,14-5.6,19.7-0.7c0,0,0.1,0,0.1,0.1C60.9,33.4,60.9,34,60.5,34.3z"/>
				<g>
					<g>
						<path class="st0" d="M225.4,35.6c-2.6,0-4.8,2.1-4.8,4.8c0,2.6,2.1,4.8,4.8,4.8c2.6,0,4.8-2.1,4.8-4.8
							C230.2,37.8,228.1,35.6,225.4,35.6z M225.4,44c-2,0-3.6-1.6-3.6-3.6c0-2,1.6-3.6,3.6-3.6c2,0,3.6,1.6,3.6,3.6
							C229,42.4,227.4,44,225.4,44z"/>
					</g>
					<path class="st0" d="M225.9,40.6c0.6-0.1,1-0.6,1-1.2c0-0.8-0.6-1.3-1.5-1.3h-1.2c-0.3,0-0.5,0.2-0.5,0.5v3.3
						c0,0.3,0.2,0.5,0.5,0.5s0.5-0.2,0.5-0.5v-1.2h0l1.2,1.5c0.1,0.2,0.2,0.2,0.5,0.2c0.4,0,0.5-0.3,0.5-0.5c0-0.2-0.1-0.3-0.2-0.4
						L225.9,40.6z M225.5,39.9h-0.6v-1h0.6c0.3,0,0.5,0.2,0.5,0.5C226,39.6,225.8,39.9,225.5,39.9z"/>
				</g>
			</g>
		</g>
	</g>
	<rect class="st1" width="250" height="99.3"/>
</g>
</svg>
