<?xml version="1.0" encoding="utf-8"?>
<!-- Generator: Adobe Illustrator 23.0.3, SVG Export Plug-In . SVG Version: 6.00 Build 0)  -->
<svg version="1.1" xmlns="http://www.w3.org/2000/svg" xmlns:xlink="http://www.w3.org/1999/xlink" x="0px" y="0px"
	 viewBox="0 0 350 139.1" style="enable-background:new 0 0 350 139.1;" xml:space="preserve">
<style type="text/css">
	.st0{fill:#212933;}
	.st1{fill:none;}
</style>
<g id="Diecut_切線__x28_not_for_print_x29_">
</g>
<g id="Print">
	<g>
		<g>
			<g>
				<path class="st0" d="M226,49.9h-0.2c-3.3,0-6.3,1.4-8.4,3.5c-2.1-2.2-5.1-3.5-8.4-3.5h-0.2c-6.5,0-11.8,5.2-11.8,11.7v22.9h0
					c0.1,1.8,1.5,3.2,3.3,3.2c1.8,0,3.2-1.4,3.3-3.2h0V61.6c0-2.8,2.3-5,5.1-5h0.2c2.7,0,5,2.1,5.1,4.8c0,0.1,0,0.1,0,0.2v22.9h0
					c0,0.7,0.3,1.3,0.6,1.8c0.6,0.9,1.6,1.4,2.7,1.4c1.8,0,3.2-1.4,3.3-3.2h0V61.6c0-0.1,0-0.1,0-0.2c0.1-2.7,2.3-4.8,5.1-4.8h0.2
					c2.8,0,5.1,2.3,5.1,5v22.6c0,0,0,0,0,0.1c0,0,0,0,0,0.1v0.1h0c0.1,1.8,1.5,3.2,3.3,3.2c1.8,0,3.2-1.4,3.3-3.2h0V61.6
					C237.8,55.1,232.5,49.9,226,49.9z"/>
				<path class="st0" d="M186.4,49.9c-1.8,0-3.3,1.4-3.4,3.2h0v22.9c0,2.8-2.3,5-5.1,5h-0.2c-2.8,0-5.1-2.3-5.1-5V53.3
					c0,0,0,0,0-0.1l0-0.1V53h0c-0.1-1.8-1.6-3.2-3.4-3.2c-1.8,0-3.3,1.4-3.4,3.2h0v22.9c0,6.4,5.3,11.7,11.9,11.7h0.2
					c6.6,0,11.9-5.3,11.9-11.7V53h0C189.7,51.3,188.2,49.9,186.4,49.9z"/>
				<path class="st0" d="M265.8,49.9c-1.8,0-3.3,1.4-3.4,3.2h0v22.9c0,2.8-2.3,5-5.1,5h-0.2c-2.8,0-5.1-2.3-5.1-5V53.3
					c0,0,0,0,0-0.1l0-0.1V53h0c-0.1-1.8-1.6-3.2-3.4-3.2c-1.8,0-3.3,1.4-3.4,3.2h0v22.9c0,6.4,5.3,11.7,11.9,11.7h0.2
					c6.6,0,11.9-5.3,11.9-11.7V53h0C269.1,51.3,267.7,49.9,265.8,49.9z"/>
				<path class="st0" d="M288.2,49.9H288c-6.7,0-12,5.4-12,11.9v13.8c0,0.4,0,0.8,0,1.2v26.3c0,1.8,1.5,3.3,3.4,3.3
					c1.9,0,3.4-1.5,3.4-3.3V85.9c1.3,1.1,3.4,1.7,5.3,1.7h0.2c6.7,0,11.8-5.7,11.8-12.3V61.5C299.9,54.9,294.9,49.9,288.2,49.9z
					 M293.4,75.7c0,3.6-2.3,5.1-5.2,5.1H288c-2.9,0-5.2-1.5-5.2-5.1V61.8c0-2.8,2.3-5.2,5.2-5.2h0.2c2.9,0,5.2,2.3,5.2,5.2V75.7z"/>
				<path class="st0" d="M149.3,64.8c-3.8-1.5-6.1-2.5-6.1-4.7c0-1.8,1.4-3.6,4.6-3.6c2,0,3.7,0.9,4.9,2.5c0.8,1,1.7,1.6,2.7,1.6
					c1.9,0,3.5-1.5,3.5-3.4c0-0.7-0.2-1.3-0.5-1.9c-2.1-3.2-6.4-5.5-10.5-5.5c-5.7,0-11.4,3.5-11.4,10.2c0,6.9,5.7,9.1,10.2,10.8
					c3.6,1.4,6.8,2.6,6.8,5.7c0,2.2-2.1,4.5-6.1,4.5c-1.2,0-3.5-0.3-5-2.1c-0.8-0.9-1.8-1.4-2.7-1.4c-1.8,0-3.5,1.6-3.5,3.4
					c0,0.7,0.2,1.4,0.7,2c2.1,3.2,6.9,4.8,10.5,4.8c6.2,0,12.8-3.9,12.8-11.1C160.2,69,154.2,66.7,149.3,64.8z"/>
				<path class="st0" d="M105.2,25.9H30.9c-3.4,0-6.2,2.8-6.2,6.2v73.9c0,3.4,2.8,6.2,6.2,6.2h74.3c3.4,0,6.2-2.8,6.2-6.2V32
					C111.4,28.6,108.6,25.9,105.2,25.9z M79.2,90.7c-7.6,7.5-19.7,7.9-27.6,1c0,0-0.1-0.1-0.1-0.1c-0.5-0.5-0.5-1.3,0-1.8l26.9-26.7
					c0.5-0.5,1.3-0.5,1.8,0C87.1,71.1,86.8,83.2,79.2,90.7z M84.8,48L57.9,74.8v0c-0.5,0.5-1.3,0.5-1.8,0h0c-7-7.9-6.7-20,0.9-27.6
					c7.6-7.5,19.7-7.9,27.6-1c0,0,0.1,0.1,0.1,0.1C85.2,46.8,85.2,47.5,84.8,48z"/>
				<g>
					<g>
						<path class="st0" d="M315.6,49.9c-3.7,0-6.7,3-6.7,6.7c0,3.7,3,6.7,6.7,6.7c3.7,0,6.7-3,6.7-6.7
							C322.3,52.9,319.3,49.9,315.6,49.9z M315.6,61.6c-2.8,0-5.1-2.3-5.1-5c0-2.8,2.3-5,5.1-5c2.8,0,5.1,2.2,5.1,5
							C320.7,59.3,318.4,61.6,315.6,61.6z"/>
					</g>
					<path class="st0" d="M316.3,56.8c0.9-0.2,1.4-0.8,1.4-1.7c0-1.1-0.8-1.9-2-1.9H314c-0.4,0-0.7,0.2-0.7,0.7v4.7
						c0,0.5,0.3,0.7,0.7,0.7c0.4,0,0.7-0.2,0.7-0.7v-1.7h0l1.7,2.1c0.2,0.2,0.3,0.3,0.7,0.3c0.5,0,0.7-0.4,0.7-0.6
						c0-0.2-0.1-0.4-0.3-0.6L316.3,56.8z M315.6,55.8h-0.9v-1.3h0.9c0.4,0,0.7,0.2,0.7,0.7C316.4,55.5,316.1,55.8,315.6,55.8z"/>
				</g>
			</g>
		</g>
	</g>
	<rect class="st1" width="350" height="139.1"/>
</g>
</svg>
