<?xml version="1.0" encoding="utf-8"?>
<!-- Generator: Adobe Illustrator 23.0.3, SVG Export Plug-In . SVG Version: 6.00 Build 0)  -->
<svg version="1.1" xmlns="http://www.w3.org/2000/svg" xmlns:xlink="http://www.w3.org/1999/xlink" x="0px" y="0px"
	 viewBox="0 0 425.2 425.2" style="enable-background:new 0 0 425.2 425.2;" xml:space="preserve">
<style type="text/css">
	.st0{fill:none;}
	.st1{fill:#FFFFFF;}
</style>
<g id="Diecut_切線__x28_not_for_print_x29_">
</g>
<g id="Print">
	<g>
		<rect class="st0" width="425.2" height="425.2"/>
		<path class="st1" d="M329.9,75.5H95.3c-10.8,0-19.6,8.8-19.6,19.6v234.6c0,10.8,8.8,19.6,19.6,19.6h234.6
			c10.8,0,19.6-8.8,19.6-19.6V95C349.5,84.2,340.7,75.5,329.9,75.5z M247.6,281.6c-23.9,23.9-62.1,25-87.2,3.1
			c-0.1-0.1-0.3-0.2-0.4-0.4c-1.5-1.5-1.6-4-0.1-5.6l84.9-84.9c1.6-1.5,4-1.4,5.6,0.1C272.6,219.1,271.7,257.5,247.6,281.6z
			 M265.3,145.9l-84.9,84.9v0c-1.6,1.5-4,1.4-5.6-0.1h0c-22.2-25.1-21.3-63.6,2.7-87.6c23.9-23.9,62.1-25,87.2-3.1
			c0.1,0.1,0.3,0.2,0.4,0.4C266.7,141.9,266.8,144.3,265.3,145.9z"/>
	</g>
</g>
</svg>
