<?xml version="1.0" encoding="utf-8"?>
<!-- Generator: Adobe Illustrator 23.0.3, SVG Export Plug-In . SVG Version: 6.00 Build 0)  -->
<svg version="1.1" xmlns="http://www.w3.org/2000/svg" xmlns:xlink="http://www.w3.org/1999/xlink" x="0px" y="0px"
	 viewBox="0 0 22.7 22.7" style="enable-background:new 0 0 22.7 22.7;" xml:space="preserve">
<style type="text/css">
	.st0{fill:none;}
	.st1{fill:#FFFFFF;}
</style>
<g id="Diecut_切線__x28_not_for_print_x29_">
</g>
<g id="Print">
	<g>
		<rect class="st0" width="22.7" height="22.7"/>
		<path class="st1" d="M17.6,4H5.1c-0.6,0-1,0.5-1,1v12.5c0,0.6,0.5,1,1,1h12.5c0.6,0,1-0.5,1-1V5.1C18.6,4.5,18.2,4,17.6,4z
			 M13.2,15c-1.3,1.3-3.3,1.3-4.7,0.2c0,0,0,0,0,0c-0.1-0.1-0.1-0.2,0-0.3l4.5-4.5c0.1-0.1,0.2-0.1,0.3,0
			C14.5,11.7,14.5,13.7,13.2,15z M14.1,7.8l-4.5,4.5v0c-0.1,0.1-0.2,0.1-0.3,0h0C8.1,11,8.2,8.9,9.5,7.6c1.3-1.3,3.3-1.3,4.7-0.2
			c0,0,0,0,0,0C14.2,7.6,14.2,7.7,14.1,7.8z"/>
	</g>
</g>
</svg>
