<?xml version="1.0" encoding="utf-8"?>
<!-- Generator: Adobe Illustrator 23.0.3, SVG Export Plug-In . SVG Version: 6.00 Build 0)  -->
<svg version="1.1" xmlns="http://www.w3.org/2000/svg" xmlns:xlink="http://www.w3.org/1999/xlink" x="0px" y="0px"
	 viewBox="0 0 16 16" style="enable-background:new 0 0 16 16;" xml:space="preserve">
<style type="text/css">
	.st0{fill:none;}
	.st1{fill:#FFFFFF;}
	.st2{font-family:'MyriadPro-Regular';}
	.st3{font-size:40px;}
	.st4{fill:#212933;}
</style>
<g id="Diecut_切線__x28_not_for_print_x29_">
</g>
<g id="Print">
	<rect x="-5.4" y="-101.5" class="st0" width="174.6" height="103.9"/>
	<text transform="matrix(1 0 0 1 -5.4398 -73.096)"><tspan x="0" y="0" class="st1 st2 st3">favicon</tspan><tspan x="0" y="48" class="st1 st2 st3">16x16px</tspan></text>
	<path class="st4" d="M14.9,0H1.1C0.5,0,0,0.5,0,1.1v13.7C0,15.5,0.5,16,1.1,16h13.7c0.6,0,1.1-0.5,1.1-1.1V1.1
		C16,0.5,15.5,0,14.9,0z M10,12c-1.4,1.4-3.6,1.5-5.1,0.2c0,0,0,0,0,0c-0.1-0.1-0.1-0.2,0-0.3l5-5c0.1-0.1,0.2-0.1,0.3,0
		C11.5,8.4,11.5,10.6,10,12z M11.1,4.1l-5,5v0C6,9.2,5.9,9.2,5.8,9.1h0C4.5,7.6,4.5,5.4,6,4c1.4-1.4,3.6-1.5,5.1-0.2c0,0,0,0,0,0
		C11.2,3.9,11.2,4,11.1,4.1z"/>
</g>
</svg>
