<?xml version="1.0" encoding="utf-8"?>
<!-- Generator: Adobe Illustrator 23.0.3, SVG Export Plug-In . SVG Version: 6.00 Build 0)  -->
<svg version="1.1" xmlns="http://www.w3.org/2000/svg" xmlns:xlink="http://www.w3.org/1999/xlink" x="0px" y="0px"
	 viewBox="0 0 32 32" style="enable-background:new 0 0 32 32;" xml:space="preserve">
<style type="text/css">
	.st0{fill:none;}
	.st1{fill:#FFFFFF;}
	.st2{font-family:'MyriadPro-Regular';}
	.st3{font-size:40px;}
	.st4{fill:#212933;}
</style>
<g id="Diecut_切線__x28_not_for_print_x29_">
</g>
<g id="Print">
	<rect x="-5.4" y="-101.5" class="st0" width="174.6" height="103.9"/>
	<text transform="matrix(1 0 0 1 -5.4398 -73.096)"><tspan x="0" y="0" class="st1 st2 st3">favicon</tspan><tspan x="0" y="48" class="st1 st2 st3">32x32px</tspan></text>
	<path class="st4" d="M29.7,0H2.3C1,0,0,1,0,2.3v27.4C0,31,1,32,2.3,32h27.4c1.3,0,2.3-1,2.3-2.3V2.3C32,1,31,0,29.7,0z M20.1,24.1
		c-2.8,2.8-7.3,2.9-10.2,0.4c0,0,0,0,0,0c-0.2-0.2-0.2-0.5,0-0.7l9.9-9.9c0.2-0.2,0.5-0.2,0.7,0C23,16.8,22.9,21.3,20.1,24.1z
		 M22.2,8.2l-9.9,9.9v0c-0.2,0.2-0.5,0.2-0.7,0h0C9,15.2,9.1,10.7,11.9,7.9c2.8-2.8,7.3-2.9,10.2-0.4c0,0,0,0,0,0
		C22.3,7.8,22.3,8.1,22.2,8.2z"/>
</g>
</svg>
