<?xml version="1.0" encoding="utf-8"?>
<!-- Generator: Adobe Illustrator 23.0.3, SVG Export Plug-In . SVG Version: 6.00 Build 0)  -->
<svg version="1.1" xmlns="http://www.w3.org/2000/svg" xmlns:xlink="http://www.w3.org/1999/xlink" x="0px" y="0px"
	 viewBox="0 0 48 48" style="enable-background:new 0 0 48 48;" xml:space="preserve">
<style type="text/css">
	.st0{fill:none;}
	.st1{fill:#FFFFFF;}
	.st2{font-family:'MyriadPro-Regular';}
	.st3{font-size:40px;}
	.st4{fill:#212933;}
</style>
<g id="Diecut_切線__x28_not_for_print_x29_">
</g>
<g id="Print">
	<rect x="-5.4" y="-101.5" class="st0" width="174.6" height="103.9"/>
	<text transform="matrix(1 0 0 1 -5.4398 -73.096)"><tspan x="0" y="0" class="st1 st2 st3">favicon</tspan><tspan x="0" y="48" class="st1 st2 st3">48x48px</tspan></text>
	<path class="st4" d="M44.6,0H3.4C1.5,0,0,1.5,0,3.4v41.1C0,46.5,1.5,48,3.4,48h41.1c1.9,0,3.4-1.5,3.4-3.4V3.4
		C48,1.5,46.5,0,44.6,0z M30.1,36.1c-4.2,4.2-10.9,4.4-15.3,0.5c0,0,0,0-0.1-0.1c-0.3-0.3-0.3-0.7,0-1l14.9-14.9
		c0.3-0.3,0.7-0.3,1,0C34.5,25.2,34.4,31.9,30.1,36.1z M33.2,12.4L18.4,27.2v0c-0.3,0.3-0.7,0.3-1,0h0c-3.9-4.4-3.7-11.1,0.5-15.4
		c4.2-4.2,10.9-4.4,15.3-0.5c0,0,0,0,0.1,0.1C33.5,11.6,33.5,12.1,33.2,12.4z"/>
</g>
</svg>
