<?xml version="1.0" encoding="utf-8"?>
<!-- Generator: Adobe Illustrator 23.0.3, SVG Export Plug-In . SVG Version: 6.00 Build 0)  -->
<svg version="1.1" xmlns="http://www.w3.org/2000/svg" xmlns:xlink="http://www.w3.org/1999/xlink" x="0px" y="0px"
	 viewBox="0 0 250 250" style="enable-background:new 0 0 250 250;" xml:space="preserve">
<style type="text/css">
	.st0{fill:#212933;}
</style>
<g id="Diecut_切線__x28_not_for_print_x29_">
</g>
<g id="Print">
	<g>
		<g>
			<path class="st0" d="M187.4,52.6H63.2c-5.7,0-10.3,4.6-10.3,10.3v124.2c0,5.7,4.6,10.3,10.3,10.3h124.2c5.7,0,10.3-4.6,10.3-10.3
				V62.9C197.7,57.2,193.1,52.6,187.4,52.6z M143.8,161.6c-12.7,12.7-32.8,13.2-46.2,1.6c-0.1-0.1-0.1-0.1-0.2-0.2
				c-0.8-0.8-0.8-2.1-0.1-2.9l44.9-44.9c0.8-0.8,2.1-0.8,3,0C157,128.6,156.5,148.9,143.8,161.6z M153.2,89.8l-44.9,44.9v0
				c-0.8,0.8-2.1,0.8-2.9,0h0c-11.8-13.3-11.3-33.6,1.4-46.4c12.7-12.7,32.8-13.2,46.2-1.6c0.1,0.1,0.1,0.1,0.2,0.2
				C153.9,87.7,154,89,153.2,89.8z"/>
		</g>
	</g>
</g>
</svg>
