<?xml version="1.0" encoding="utf-8"?>
<!-- Generator: Adobe Illustrator 23.0.3, SVG Export Plug-In . SVG Version: 6.00 Build 0)  -->
<svg version="1.1" xmlns="http://www.w3.org/2000/svg" xmlns:xlink="http://www.w3.org/1999/xlink" x="0px" y="0px"
	 viewBox="0 0 200 200" style="enable-background:new 0 0 200 200;" xml:space="preserve">
<style type="text/css">
	.st0{fill:#212933;}
	.st1{fill:none;}
	.st2{fill:#FFFFFF;}
	.st3{font-family:'MyriadPro-Regular';}
	.st4{font-size:40px;}
</style>
<g id="Diecut_切線__x28_not_for_print_x29_">
</g>
<g id="Print">
	<g>
		<path class="st0" d="M154.7,36H45.3c-5,0-9.1,4.1-9.1,9.1v109.4c0,5,4.1,9.1,9.1,9.1h109.4c5,0,9.1-4.1,9.1-9.1V45.2
			C163.8,40.1,159.8,36,154.7,36z M116.3,132.2c-11.2,11.2-29,11.6-40.7,1.4c-0.1-0.1-0.1-0.1-0.2-0.2c-0.7-0.7-0.7-1.9,0-2.6
			L115,91.3c0.7-0.7,1.9-0.7,2.6,0C128,103,127.6,121,116.3,132.2z M124.6,68.9L85,108.5v0c-0.7,0.7-1.9,0.7-2.6,0h0
			C72,96.7,72.4,78.8,83.7,67.6c11.2-11.2,29-11.6,40.7-1.4c0.1,0,0.1,0.1,0.2,0.2C125.3,67,125.3,68.2,124.6,68.9z"/>
		<rect class="st1" width="200" height="200"/>
	</g>
	<rect x="1.5" y="-92.3" class="st1" width="613.9" height="103.9"/>
	<text transform="matrix(1 0 0 1 1.5066 -63.8583)"><tspan x="0" y="0" class="st2 st3 st4">Facebook square crop 1x padding</tspan><tspan x="0" y="48" class="st2 st3 st4">200x200px</tspan></text>
</g>
</svg>
