<?xml version="1.0" encoding="utf-8"?>
<!-- Generator: Adobe Illustrator 23.0.3, SVG Export Plug-In . SVG Version: 6.00 Build 0)  -->
<svg version="1.1" xmlns="http://www.w3.org/2000/svg" xmlns:xlink="http://www.w3.org/1999/xlink" x="0px" y="0px"
	 viewBox="0 0 98 98" style="enable-background:new 0 0 98 98;" xml:space="preserve">
<style type="text/css">
	.st0{fill:none;}
	.st1{fill:#FFFFFF;}
	.st2{font-family:'MyriadPro-Regular';}
	.st3{font-size:40px;}
	.st4{fill:#212933;}
</style>
<g id="Diecut_切線__x28_not_for_print_x29_">
</g>
<g id="Print">
	<rect x="2.4" y="-97.1" class="st0" width="785.5" height="103.9"/>
	<text transform="matrix(1 0 0 1 2.3558 -68.704)"><tspan x="0" y="0" class="st1 st2 st3">Youtube Channel_round crop 2X padding</tspan><tspan x="0" y="48" class="st1 st2 st3">98x98px</tspan></text>
	<g>
		<g>
			<path class="st4" d="M73.3,20.6H24.7c-2.2,0-4.1,1.8-4.1,4.1v48.7c0,2.2,1.8,4.1,4.1,4.1h48.7c2.2,0,4.1-1.8,4.1-4.1V24.7
				C77.4,22.4,75.6,20.6,73.3,20.6z M56.3,63.4c-5,5-12.9,5.2-18.1,0.6c0,0-0.1,0-0.1-0.1c-0.3-0.3-0.3-0.8,0-1.2l17.6-17.6
				c0.3-0.3,0.8-0.3,1.2,0C61.4,50.4,61.3,58.4,56.3,63.4z M59.9,35.2L42.3,52.8v0c-0.3,0.3-0.8,0.3-1.2,0h0
				c-4.6-5.2-4.4-13.2,0.6-18.2c5-5,12.9-5.2,18.1-0.6c0,0,0.1,0,0.1,0.1C60.2,34.4,60.2,34.9,59.9,35.2z"/>
		</g>
	</g>
</g>
</svg>
