<?xml version="1.0" encoding="utf-8"?>
<!-- Generator: Adobe Illustrator 23.0.3, SVG Export Plug-In . SVG Version: 6.00 Build 0)  -->
<svg version="1.1" xmlns="http://www.w3.org/2000/svg" xmlns:xlink="http://www.w3.org/1999/xlink" x="0px" y="0px"
	 viewBox="0 0 400 400" style="enable-background:new 0 0 400 400;" xml:space="preserve">
<style type="text/css">
	.st0{fill:none;}
	.st1{fill:#FFFFFF;}
	.st2{font-family:'MyriadPro-Regular';}
	.st3{font-size:40px;}
	.st4{fill:#212933;}
</style>
<g id="Diecut_切線__x28_not_for_print_x29_">
</g>
<g id="Print">
	<rect x="2.4" y="-97.1" class="st0" width="546.4" height="103.9"/>
	<text transform="matrix(1 0 0 1 2.3558 -68.7031)"><tspan x="0" y="0" class="st1 st2 st3">Linkedin round crop 2X padding</tspan><tspan x="0" y="48" class="st1 st2 st3">400x400px</tspan></text>
	<g>
		<path class="st4" d="M298.4,84.1H99.7c-9.1,0-16.6,7.4-16.6,16.6v198.7c0,9.1,7.4,16.6,16.6,16.6h198.7c9.1,0,16.6-7.4,16.6-16.6
			V100.6C314.9,91.5,307.5,84.1,298.4,84.1z M228.7,258.6c-20.3,20.3-52.6,21.1-73.8,2.6c-0.1-0.1-0.2-0.2-0.3-0.3
			c-1.3-1.3-1.3-3.4-0.1-4.7l71.9-71.9c1.3-1.2,3.4-1.2,4.7,0.1C249.8,205.7,249,238.2,228.7,258.6z M243.6,143.7l-71.9,71.9v0
			c-1.3,1.2-3.4,1.2-4.7-0.1h0c-18.8-21.3-18-53.8,2.3-74.2c20.3-20.3,52.6-21.1,73.9-2.6c0.1,0.1,0.2,0.2,0.3,0.3
			C244.9,140.3,244.9,142.4,243.6,143.7z"/>
	</g>
</g>
</svg>
