<?xml version="1.0" encoding="utf-8"?>
<!-- Generator: Adobe Illustrator 23.0.3, SVG Export Plug-In . SVG Version: 6.00 Build 0)  -->
<svg version="1.1" xmlns="http://www.w3.org/2000/svg" xmlns:xlink="http://www.w3.org/1999/xlink" x="0px" y="0px"
	 viewBox="0 0 110 110" style="enable-background:new 0 0 110 110;" xml:space="preserve">
<style type="text/css">
	.st0{fill:none;}
	.st1{fill:#FFFFFF;}
	.st2{font-family:'MyriadPro-Regular';}
	.st3{font-size:40px;}
	.st4{fill:#212933;}
</style>
<g id="Diecut_切線__x28_not_for_print_x29_">
</g>
<g id="Print">
	<rect x="-1.5" y="-97.1" class="st0" width="613.9" height="103.9"/>
	<text transform="matrix(1 0 0 1 -1.5413 -68.7032)"><tspan x="0" y="0" class="st1 st2 st3">Instagram round crop 2X padding</tspan><tspan x="0" y="48" class="st1 st2 st3">110x110px</tspan></text>
	<g>
		<g>
			<path class="st4" d="M82.3,23.1H27.7c-2.5,0-4.6,2-4.6,4.6v54.6c0,2.5,2,4.6,4.6,4.6h54.6c2.5,0,4.6-2,4.6-4.6V27.7
				C86.9,25.2,84.9,23.1,82.3,23.1z M63.2,71.1c-5.6,5.6-14.5,5.8-20.3,0.7c0,0-0.1-0.1-0.1-0.1c-0.4-0.4-0.4-0.9,0-1.3l19.8-19.8
				c0.4-0.3,0.9-0.3,1.3,0C69,56.6,68.8,65.5,63.2,71.1z M67.3,39.5L47.5,59.3v0c-0.4,0.3-0.9,0.3-1.3,0h0c-5.2-5.9-5-14.8,0.6-20.4
				c5.6-5.6,14.5-5.8,20.3-0.7c0,0,0.1,0.1,0.1,0.1C67.6,38.6,67.6,39.2,67.3,39.5z"/>
		</g>
	</g>
</g>
</svg>
