<?xml version="1.0" encoding="utf-8"?>
<!-- Generator: Adobe Illustrator 23.0.3, SVG Export Plug-In . SVG Version: 6.00 Build 0)  -->
<svg version="1.1" xmlns="http://www.w3.org/2000/svg" xmlns:xlink="http://www.w3.org/1999/xlink" x="0px" y="0px"
	 viewBox="0 0 56.7 22.5" style="enable-background:new 0 0 56.7 22.5;" xml:space="preserve">
<style type="text/css">
	.st0{fill:#FFFFFF;}
	.st1{fill:none;}
</style>
<g id="Diecut_切線__x28_not_for_print_x29_">
</g>
<g id="Print">
	<g>
		<g>
			<g>
				<g>
					<path class="st0" d="M36.6,8.1L36.6,8.1c-0.6,0-1,0.2-1.4,0.6c-0.3-0.4-0.8-0.6-1.4-0.6h0c-1.1,0-1.9,0.8-1.9,1.9v3.7h0
						c0,0.3,0.2,0.5,0.5,0.5c0.3,0,0.5-0.2,0.5-0.5h0V10c0-0.5,0.4-0.8,0.8-0.8h0c0.4,0,0.8,0.3,0.8,0.8c0,0,0,0,0,0v3.7h0
						c0,0.1,0,0.2,0.1,0.3c0.1,0.1,0.3,0.2,0.4,0.2c0.3,0,0.5-0.2,0.5-0.5h0V10c0,0,0,0,0,0c0-0.4,0.4-0.8,0.8-0.8h0
						c0.5,0,0.8,0.4,0.8,0.8v3.7c0,0,0,0,0,0c0,0,0,0,0,0v0h0c0,0.3,0.2,0.5,0.5,0.5c0.3,0,0.5-0.2,0.5-0.5h0V10
						C38.5,8.9,37.7,8.1,36.6,8.1z"/>
					<path class="st0" d="M30.2,8.1c-0.3,0-0.5,0.2-0.5,0.5h0v3.7c0,0.5-0.4,0.8-0.8,0.8h0c-0.5,0-0.8-0.4-0.8-0.8V8.6c0,0,0,0,0,0
						l0,0v0h0c0-0.3-0.3-0.5-0.5-0.5c-0.3,0-0.5,0.2-0.5,0.5h0v3.7c0,1,0.9,1.9,1.9,1.9h0c1.1,0,1.9-0.9,1.9-1.9V8.6h0
						C30.7,8.3,30.5,8.1,30.2,8.1z"/>
					<path class="st0" d="M43.1,8.1c-0.3,0-0.5,0.2-0.5,0.5h0v3.7c0,0.5-0.4,0.8-0.8,0.8h0c-0.5,0-0.8-0.4-0.8-0.8V8.6c0,0,0,0,0,0
						l0,0v0h0c0-0.3-0.3-0.5-0.5-0.5c-0.3,0-0.5,0.2-0.5,0.5h0v3.7c0,1,0.9,1.9,1.9,1.9h0c1.1,0,1.9-0.9,1.9-1.9V8.6h0
						C43.6,8.3,43.4,8.1,43.1,8.1z"/>
					<path class="st0" d="M46.7,8.1L46.7,8.1c-1.1,0-2,0.9-2,1.9v2.2c0,0.1,0,0.1,0,0.2v4.3c0,0.3,0.2,0.5,0.5,0.5
						c0.3,0,0.5-0.2,0.5-0.5v-2.8c0.2,0.2,0.6,0.3,0.9,0.3h0c1.1,0,1.9-0.9,1.9-2V10C48.6,8.9,47.8,8.1,46.7,8.1z M47.5,12.3
						c0,0.6-0.4,0.8-0.8,0.8h0c-0.5,0-0.8-0.2-0.8-0.8V10c0-0.5,0.4-0.8,0.8-0.8h0c0.5,0,0.8,0.4,0.8,0.8V12.3z"/>
					<path class="st0" d="M24.2,10.5c-0.6-0.2-1-0.4-1-0.8c0-0.3,0.2-0.6,0.7-0.6c0.3,0,0.6,0.1,0.8,0.4c0.1,0.2,0.3,0.3,0.4,0.3
						c0.3,0,0.6-0.3,0.6-0.5c0-0.1,0-0.2-0.1-0.3c-0.3-0.5-1-0.9-1.7-0.9c-0.9,0-1.8,0.6-1.8,1.6c0,1.1,0.9,1.5,1.7,1.8
						c0.6,0.2,1.1,0.4,1.1,0.9c0,0.4-0.3,0.7-1,0.7c-0.2,0-0.6,0-0.8-0.3c-0.1-0.1-0.3-0.2-0.4-0.2c-0.3,0-0.6,0.3-0.6,0.5
						c0,0.1,0,0.2,0.1,0.3c0.3,0.5,1.1,0.8,1.7,0.8c1,0,2.1-0.6,2.1-1.8C25.9,11.2,25,10.8,24.2,10.5z"/>
					<path class="st0" d="M17,4.2H5c-0.6,0-1,0.4-1,1v12c0,0.6,0.4,1,1,1h12c0.6,0,1-0.4,1-1v-12C18,4.6,17.6,4.2,17,4.2z
						 M12.8,14.7c-1.2,1.2-3.2,1.3-4.5,0.2c0,0,0,0,0,0c-0.1-0.1-0.1-0.2,0-0.3l4.4-4.3c0.1-0.1,0.2-0.1,0.3,0
						C14.1,11.5,14.1,13.5,12.8,14.7z M13.7,7.8l-4.4,4.3v0c-0.1,0.1-0.2,0.1-0.3,0h0C7.9,10.8,8,8.9,9.2,7.6
						c1.2-1.2,3.2-1.3,4.5-0.2c0,0,0,0,0,0C13.8,7.6,13.8,7.7,13.7,7.8z"/>
					<g>
						<g>
							<path class="st0" d="M51.1,8.1c-0.6,0-1.1,0.5-1.1,1.1c0,0.6,0.5,1.1,1.1,1.1c0.6,0,1.1-0.5,1.1-1.1
								C52.2,8.6,51.7,8.1,51.1,8.1z M51.1,10c-0.5,0-0.8-0.4-0.8-0.8c0-0.4,0.4-0.8,0.8-0.8c0.5,0,0.8,0.4,0.8,0.8
								C51.9,9.6,51.6,10,51.1,10z"/>
						</g>
						<path class="st0" d="M51.2,9.2c0.1,0,0.2-0.1,0.2-0.3c0-0.2-0.1-0.3-0.3-0.3h-0.3c-0.1,0-0.1,0-0.1,0.1v0.8
							c0,0.1,0,0.1,0.1,0.1c0.1,0,0.1,0,0.1-0.1V9.2h0l0.3,0.3c0,0,0,0.1,0.1,0.1c0.1,0,0.1-0.1,0.1-0.1c0,0,0-0.1,0-0.1L51.2,9.2z
							 M51.1,9H51V8.8h0.1c0.1,0,0.1,0,0.1,0.1C51.2,9,51.2,9,51.1,9z"/>
					</g>
				</g>
			</g>
		</g>
		<rect class="st1" width="56.7" height="22.5"/>
	</g>
</g>
</svg>
