<?xml version="1.0" encoding="utf-8"?>
<!-- Generator: Adobe Illustrator 23.0.3, SVG Export Plug-In . SVG Version: 6.00 Build 0)  -->
<svg version="1.1" xmlns="http://www.w3.org/2000/svg" xmlns:xlink="http://www.w3.org/1999/xlink" x="0px" y="0px"
	 viewBox="0 0 1133.9 450.6" style="enable-background:new 0 0 1133.9 450.6;" xml:space="preserve">
<style type="text/css">
	.st0{fill:#FFFFFF;}
	.st1{fill:none;}
</style>
<g id="Diecut_切線__x28_not_for_print_x29_">
</g>
<g id="Print">
	<g>
		<g>
			<g>
				<g>
					<path class="st0" d="M732.3,161.5h-0.6c-10.7,0-20.4,4.4-27.3,11.5c-6.9-7-16.6-11.4-27.3-11.4h-0.6c-21,0-38.2,17-38.2,37.9
						v74h0.1c0.3,5.7,5,10.3,10.8,10.3c5.8,0,10.5-4.6,10.8-10.3h0.1v-74c0-9,7.4-16.4,16.5-16.4h0.6c8.9,0,16.1,6.9,16.4,15.7
						c0,0.2,0,0.4,0,0.6v74.1h0c0.1,2.2,0.8,4.1,2,5.8c2,2.8,5.2,4.6,8.8,4.6c5.8,0,10.5-4.6,10.8-10.3h0.1v-74c0-0.2,0-0.5,0-0.7
						c0.3-8.7,7.6-15.7,16.4-15.7h0.6c9.1,0,16.5,7.3,16.5,16.4v73.3c0,0.1,0,0.1,0,0.2c0,0.1,0,0.2,0,0.2v0.3h0
						c0.3,5.7,5,10.3,10.8,10.3c5.8,0,10.5-4.6,10.8-10.3h0.1v-74.1C770.4,178.5,753.3,161.5,732.3,161.5z"/>
					<path class="st0" d="M603.9,161.5c-5.9,0-10.6,4.6-10.9,10.3h0v74.1c0,9-7.5,16.3-16.7,16.3h-0.6c-9.2,0-16.6-7.3-16.6-16.3
						v-73.4c0-0.1,0-0.1,0-0.2l0-0.2v-0.3h0c-0.3-5.7-5-10.3-10.9-10.3c-5.9,0-10.6,4.6-10.9,10.3h-0.1v74.1
						c0,20.9,17.3,37.9,38.6,37.9h0.6c21.3,0,38.6-17,38.6-37.9v-74.1h0C614.5,166.1,609.8,161.5,603.9,161.5z"/>
					<path class="st0" d="M861.2,161.5c-5.9,0-10.6,4.6-10.9,10.3h-0.1v74.1c0,9-7.5,16.3-16.6,16.3H833c-9.2,0-16.6-7.3-16.6-16.3
						v-73.4c0-0.1,0-0.1,0-0.2l0-0.2v-0.3h0c-0.3-5.7-5-10.3-10.9-10.3c-5.9,0-10.6,4.6-10.9,10.3h-0.1v74.1
						c0,20.9,17.3,37.9,38.6,37.9h0.6c21.3,0,38.6-17,38.6-37.9v-74.1h-0.1C871.9,166.1,867.1,161.5,861.2,161.5z"/>
					<path class="st0" d="M933.6,161.5H933c-21.6,0-39,17.4-39,38.7v44.8c0,1.3-0.1,2.6,0,3.9v85.3c0,5.9,4.9,10.7,10.9,10.7
						c6,0,10.9-4.8,10.9-10.7v-55.8c4.1,3.6,11,5.4,17.2,5.4h0.6c21.6,0,38.1-18.5,38.1-39.8v-44.8
						C971.7,177.8,955.2,161.5,933.6,161.5z M950.5,245.1c0,11.7-7.6,16.7-16.9,16.7H933c-9.3,0-16.9-5-16.9-16.7v-44.8
						c0-9.2,7.6-16.7,16.9-16.7h0.6c9.3,0,16.9,7.5,16.9,16.7V245.1z"/>
					<path class="st0" d="M483.7,209.8c-12.3-4.8-19.8-8.1-19.8-15.3c0-5.7,4.6-11.5,14.9-11.5c6.5,0,11.9,2.8,15.8,8.1
						c2.6,3.4,5.5,5.1,8.7,5.1c6.2,0,11.4-5,11.4-10.9c0-2.3-0.6-4.4-1.8-6.1c-6.8-10.4-20.8-17.7-34.1-17.7
						c-18.3,0-36.8,11.3-36.8,33c0,22.3,18.4,29.4,33.1,35.1c11.8,4.6,22,8.5,22,18.3c0,7.2-6.7,14.5-19.6,14.5
						c-3.9,0-11.3-0.9-16.2-6.8c-2.6-3-5.7-4.7-8.7-4.7c-5.9,0-11.4,5.2-11.4,10.9c0,2.3,0.7,4.4,2.1,6.5
						c6.8,10.2,22.3,15.6,34.1,15.6c20.2,0,41.6-12.6,41.6-35.9C519,223.6,499.4,216,483.7,209.8z"/>
					<path class="st0" d="M340.9,83.8H100.2c-11.1,0-20.1,8.9-20.1,19.9V343c0,11,9,19.9,20.1,19.9h240.7c11.1,0,20.1-8.9,20.1-19.9
						V103.7C360.9,92.7,352,83.8,340.9,83.8z M256.5,293.9c-24.5,24.4-63.7,25.5-89.5,3.2c-0.1-0.1-0.3-0.2-0.4-0.4
						c-1.6-1.6-1.6-4.1-0.1-5.7l87.1-86.6c1.6-1.5,4.1-1.5,5.7,0.1C282.1,230.2,281.1,269.4,256.5,293.9z M274.6,155.6l-87.1,86.6v0
						c-1.6,1.5-4.1,1.5-5.7-0.1h0c-22.8-25.6-21.9-64.8,2.8-89.3c24.5-24.4,63.7-25.4,89.5-3.2c0.1,0.1,0.3,0.2,0.4,0.4
						C276.1,151.5,276.1,154,274.6,155.6z"/>
					<g>
						<g>
							<path class="st0" d="M1022.4,161.5c-12,0-21.7,9.7-21.7,21.6c0,11.9,9.7,21.6,21.7,21.6c12,0,21.7-9.7,21.7-21.6
								C1044.1,171.2,1034.4,161.5,1022.4,161.5z M1022.4,199.5c-9.1,0-16.4-7.3-16.4-16.4c0-9,7.4-16.3,16.4-16.3
								c9.1,0,16.4,7.3,16.4,16.3C1038.8,192.1,1031.4,199.5,1022.4,199.5z"/>
						</g>
						<path class="st0" d="M1024.8,183.9c2.8-0.5,4.6-2.6,4.6-5.5c0-3.7-2.6-6.1-6.6-6.1h-5.4c-1.2,0-2.2,0.8-2.2,2.2v15.2
							c0,1.6,0.9,2.4,2.2,2.4c1.3,0,2.2-0.8,2.2-2.4v-5.6h0.1l5.5,6.9c0.6,0.7,1,1.1,2.1,1.1c1.7,0,2.3-1.4,2.3-2.1
							c0-0.7-0.3-1.3-0.9-1.9L1024.8,183.9z M1022.6,180.8h-2.9v-4.3h2.9c1.3,0,2.3,0.8,2.3,2.1
							C1024.9,179.8,1024,180.8,1022.6,180.8z"/>
					</g>
				</g>
			</g>
		</g>
		<rect class="st1" width="1133.9" height="450.6"/>
	</g>
</g>
</svg>
